# xmcd
#
# Track frame offsets:
#	150
#	11695
#	21929
#	32058
#	42051
#	54599
#	66257
#	75884
#	88909
#	100500
#	111913
#	121682
#	133592
#	146410
#	157771
#	169395
#	180787
#	189645
#	200325
#	212214
#	225647
#	237286
#	246862
#	260351
#	269364
#	278989
#	289358
#	300473
#	309016
#	323508
#
# Disc length: 4450 seconds
#
# Revision: 1
# Processed by: cddbd v1.5.2PL0 Copyright (c) Steve Scherf et al.
# Submitted via: audiograbber 1.83.01
#
DISCID=9111601e
DTITLE=Various Artist - Dim Lights, Thick Smoke and Hillbilly Music: Country and Western H
DTITLE=it Parade 1958
DYEAR=2011
DGENRE=Country
TTITLE0=Don Gibson - Oh Lonesome Me
TTITLE1=Kitty Wells - I Can't Stop Loving You
TTITLE2=Johnny Cash - Ballad Of A Teenage Queen
TTITLE3=Jim Reeves - Blue Boy
TTITLE4=The Louvin Brothers - My Baby's Gone
TTITLE5=Roy Acuff - Once More
TTITLE6=Johnnie and Jack - Stop The World (And Let Me Off)
TTITLE7=George Jones - Color Of The Blues
TTITLE8=Eddie Noack - Have Blues Will Travel
TTITLE9=Hank Locklin - Send Me The Pillow You Dream On
TTITLE10=Marty Robbins - Just Married
TTITLE11=Lefty Frizzell - Cigarettes And Coffee Blues
TTITLE12=Ray Price - Invitation To The Blues
TTITLE13=Ernest Tubb - Half A Mind
TTITLE14=Johnny Cash - Big River
TTITLE15=Stonewall Jackson - Life To Go
TTITLE16=Don Gibson - Blue, Blue Day
TTITLE17=George Jones - Treasure Of Love
TTITLE18=Hank Locklin - It's A Little More Like Heaven
TTITLE19=Jerry Lee Lewis - You Win Again
TTITLE20=James O'Gwynn - Talk To Me Lonesome Heart
TTITLE21=Webb Pierce - Tupelo County Jail
TTITLE22=Ray Price - City Lights
TTITLE23=Faron Young - Alone With You
TTITLE24=Jim Reeves - Billy Bayou
TTITLE25=Marty Robbins - Ain't I The Lucky One
TTITLE26=Charlie Walker - Pick Me Up On Your Way Down
TTITLE27=Johnny Cash - Guess Things Happen That Way
TTITLE28=Simon Crum - Country Music Is Here To Stay
TTITLE29=Wayne Raney - We Need A Whole Lot More Jesus (And A Lot Less Rock And 
TTITLE29=Roll)
EXTD=
EXTT0=
EXTT1=
EXTT2=
EXTT3=
EXTT4=
EXTT5=
EXTT6=
EXTT7=
EXTT8=
EXTT9=
EXTT10=
EXTT11=
EXTT12=
EXTT13=
EXTT14=
EXTT15=
EXTT16=
EXTT17=
EXTT18=
EXTT19=
EXTT20=
EXTT21=
EXTT22=
EXTT23=
EXTT24=
EXTT25=
EXTT26=
EXTT27=
EXTT28=
EXTT29=
PLAYORDER=
